# xmcd
#
# Track frame offsets:
#	150
#	14677
#	25272
#	41155
#	54397
#	68797
#	85935
#	97250
#	109447
#	124675
#	141092
#	159230
#	175685
#	198635
#
# Disc length: 2893 seconds
#
# Revision: 0
# Processed by: cddbd v1.4PL0 Copyright (c) Steve Scherf et al.
# Submitted via: dBpowerAMP V4.0
#
DISCID=c50b4b0e
DTITLE=Various Artist - SXSW Live
DYEAR=1900
DGENRE=
TTITLE0=The Bird Sisters - Trouble, You Can't Fool Me
TTITLE1=Jim Dewan - So Famous
TTITLE2=Jon Dee Graham - October
TTITLE3=Jodhi Lazo - Banging My Head Against The Wall
TTITLE4=Monk E. Wilson - Monkey Time
TTITLE5=Roger Manning - Dallas Blues
TTITLE6=Christine Albert - No One Two-Steps Like You
TTITLE7=Walter Hyatt - Must  I Fall
TTITLE8=Chris Smither - Happier Blue
TTITLE9=Chuck Prophet - Baton Rouge
TTITLE10=Penelope Houston - On Borrowed Time
TTITLE11=Milo binder - Childish Things
TTITLE12=Fred Koller - The King and I
TTITLE13=Mark Curry - High Above The River/Amazing Grace
EXTD=
EXTT0=
EXTT1=
EXTT2=
EXTT3=
EXTT4=
EXTT5=
EXTT6=
EXTT7=
EXTT8=
EXTT9=
EXTT10=
EXTT11=
EXTT12=
EXTT13=
PLAYORDER=
